<svg width="74" height="27" viewBox="0 0 74 27" fill="none" xmlns="http://www.w3.org/2000/svg">
<g filter="url(#filter0_i_857_11887)">
<path d="M26.9536 13.5C26.9536 6.04416 20.9199 0 13.4768 0C6.03378 0 0 6.04416 0 13.5C0 20.9558 6.03378 27 13.4768 27C20.9199 27 26.9536 20.9558 26.9536 13.5Z" fill="url(#paint0_linear_857_11887)"/>
</g>
<path fill-rule="evenodd" clip-rule="evenodd" d="M16.9231 6.21917C16.0943 6.10734 15.0078 6.10734 13.4708 6.10734H13.2697V6.347C13.2697 7.44134 13.2697 8.31997 13.1731 9.01495C13.0765 9.73383 12.8673 10.3409 12.3845 10.8202C11.9016 11.2994 11.29 11.5071 10.5658 11.603C9.86566 11.6988 8.98045 11.6988 7.87795 11.6988H7.63655V15.1016C7.63655 16.6193 7.63654 17.7057 7.74921 18.5204C7.86188 19.3192 8.06305 19.7825 8.40105 20.126C8.73905 20.4695 9.20579 20.6692 10.0186 20.781C10.8474 20.8928 11.9338 20.8928 13.4628 20.8928C13.7927 20.8928 14.0663 21.1644 14.0663 21.4919C14.0663 21.8194 13.7927 22.091 13.4628 22.091H13.4145C11.9418 22.091 10.7669 22.091 9.85757 21.9712C8.91606 21.8434 8.15156 21.5798 7.54804 20.9887C6.94447 20.3816 6.67891 19.6308 6.5582 18.6882C6.4375 17.7776 6.4375 16.6193 6.4375 15.1496V11.1077C6.4375 10.94 6.50189 10.7882 6.61456 10.6684L9.40696 7.90461L12.1994 5.14084C12.312 4.99705 12.481 4.90918 12.6741 4.90918H13.5271C15.0078 4.90918 16.1747 4.90918 17.0921 5.02901C18.0336 5.15679 18.7981 5.42041 19.4017 6.01947C20.0052 6.61857 20.2707 7.37742 20.3995 8.31201C20.5202 9.2226 20.5202 10.3888 20.5202 11.8506V14.7274C20.5202 15.0548 20.2466 15.3265 19.9167 15.3265C19.5868 15.3265 19.3132 15.0548 19.3132 14.7274V11.8985C19.3132 10.3729 19.3132 9.29452 19.2005 8.47176C19.0878 7.665 18.8867 7.20168 18.5487 6.86619C18.2107 6.5307 17.7439 6.32305 16.9311 6.21917H16.9231Z" fill="white"/>
<path d="M17.0853 15.2671C17.1626 15.2671 17.2381 15.2906 17.302 15.3342C17.35 15.3669 17.3896 15.41 17.4184 15.4598L17.4437 15.5116V15.5125L17.661 16.0361C18.0067 16.88 18.6432 17.5692 19.4518 17.981L19.6155 18.0596L20.231 18.3338C20.3011 18.3663 20.3606 18.4187 20.4023 18.4839C20.4439 18.5492 20.4664 18.6251 20.4664 18.7025C20.4664 18.7799 20.444 18.8558 20.4023 18.9211C20.3711 18.97 20.3299 19.0115 20.2817 19.0429L20.231 19.0707L19.5801 19.3607C18.7156 19.7488 18.0273 20.4474 17.6519 21.3181L17.4409 21.8042L17.4404 21.8047C17.4111 21.8749 17.3619 21.9352 17.2987 21.9773C17.2355 22.0194 17.1612 22.042 17.0853 22.042C17.0093 22.042 16.935 22.0194 16.8718 21.9773C16.8244 21.9457 16.7847 21.904 16.7555 21.8555L16.7302 21.8047L16.7297 21.8042L16.5186 21.3181C16.1662 20.5019 15.5394 19.8373 14.7498 19.4379L14.5899 19.3617L13.939 19.0707C13.8863 19.0464 13.8399 19.0113 13.8022 18.9676L13.7673 18.9211C13.7254 18.8558 13.7031 18.7796 13.7031 18.702C13.7031 18.644 13.7157 18.5867 13.7395 18.5342L13.7673 18.4834C13.8089 18.4183 13.8685 18.3663 13.9386 18.3338L14.5535 18.0596C15.3846 17.6857 16.0524 17.0263 16.4368 16.2038L16.5095 16.037L16.7268 15.5125V15.5116C16.7551 15.4396 16.8046 15.3778 16.8685 15.3342C16.9324 15.2906 17.0079 15.2671 17.0853 15.2671Z" fill="white" stroke="#18181B" stroke-width="0.2"/>
<path d="M14.2786 6.30007C14.2786 5.5319 13.6569 4.90918 12.8901 4.90918H12.7411C9.25974 4.90918 6.4375 7.73623 6.4375 11.2236V13.2546H7.33594C11.1703 13.2546 14.2786 10.141 14.2786 6.30007Z" fill="white"/>
<g filter="url(#filter1_i_857_11887)">
<path d="M34.0225 13.1472C33.5363 13.1472 33.1324 13.1032 32.8108 13.0149C32.493 12.9267 32.2365 12.8174 32.0412 12.6871C31.8498 12.5528 31.7024 12.4205 31.599 12.2901C31.5645 12.2402 31.5339 12.1923 31.5071 12.1463C31.4803 12.1002 31.4612 12.0485 31.4497 11.9909C31.4344 11.9142 31.4191 11.8145 31.4037 11.6918C31.3884 11.5652 31.3865 11.4195 31.398 11.2546C31.4018 11.1856 31.4152 11.1376 31.4382 11.1107C31.465 11.0801 31.509 11.057 31.5703 11.0417C31.6813 11.0149 31.8249 10.9919 32.001 10.9727C32.181 10.9497 32.3092 10.9381 32.3858 10.9381C32.4662 10.9381 32.5313 10.9535 32.5811 10.9842C32.6308 11.0149 32.6902 11.0667 32.7591 11.1395C32.8357 11.2201 32.9677 11.3236 33.1553 11.4502C33.343 11.5729 33.632 11.6343 34.0225 11.6343C34.3977 11.6343 34.681 11.5557 34.8725 11.3984C35.0639 11.2411 35.1596 11.0225 35.1596 10.7426C35.1596 10.593 35.1137 10.453 35.0218 10.3226C34.9337 10.1884 34.771 10.0561 34.5336 9.92569C34.2963 9.79143 33.9575 9.65147 33.5171 9.50572C32.7897 9.26027 32.2652 8.95536 31.9436 8.59101C31.622 8.22666 31.4612 7.72043 31.4612 7.07224C31.4612 6.53533 31.5913 6.08659 31.8517 5.72611C32.112 5.36559 32.4719 5.09328 32.9314 4.90919C33.3908 4.7251 33.9211 4.63306 34.5222 4.63306C34.9854 4.63306 35.3683 4.68867 35.6708 4.79989C35.9771 4.90727 36.2144 5.03001 36.3829 5.16805C36.5513 5.30231 36.6605 5.41159 36.7102 5.49598C36.7409 5.54585 36.76 5.58419 36.7677 5.61105C36.7792 5.63407 36.7868 5.66667 36.7906 5.70883C36.8022 5.82773 36.806 5.96003 36.8022 6.10578C36.7983 6.25153 36.7849 6.41643 36.7619 6.60052C36.7505 6.66189 36.7294 6.70405 36.6987 6.72708C36.6719 6.74627 36.6298 6.75585 36.5724 6.75585C36.201 6.7635 35.9139 6.74436 35.711 6.69831C35.6306 6.67917 35.577 6.65997 35.5502 6.64078C35.5234 6.62163 35.4889 6.59095 35.4468 6.54873C35.3855 6.47588 35.2879 6.39149 35.1539 6.29562C35.0237 6.19591 34.8132 6.14604 34.5222 6.14604C34.1202 6.14604 33.8349 6.23808 33.6665 6.42217C33.498 6.60244 33.4138 6.80572 33.4138 7.03198C33.4138 7.30046 33.5382 7.5114 33.7871 7.66481C34.0359 7.81439 34.4284 7.98503 34.9644 8.17678C35.4123 8.33407 35.7971 8.50471 36.1187 8.6888C36.4403 8.87289 36.6854 9.10877 36.8538 9.3964C37.0261 9.68407 37.1123 10.0637 37.1123 10.5355C37.1123 11.1222 36.9763 11.6093 36.7045 11.9967C36.4365 12.3841 36.069 12.6736 35.6018 12.8654C35.1386 13.0533 34.6121 13.1472 34.0225 13.1472ZM43.665 7.72235C43.8066 7.54974 44.0248 7.38293 44.3197 7.22182C44.6183 7.05692 45.0375 6.97445 45.5774 6.97445C46.3431 6.97445 46.8963 7.17199 47.2371 7.56702C47.5778 7.96206 47.7482 8.55459 47.7482 9.34465V12.7043C47.7482 12.8194 47.7233 12.8999 47.6735 12.9459C47.6276 12.9881 47.5472 13.0092 47.4324 13.0092H46.2493C46.1344 13.0092 46.0522 12.9881 46.0024 12.9459C45.9564 12.8999 45.9335 12.8194 45.9335 12.7043V9.64377C45.9335 9.21422 45.855 8.9074 45.698 8.72331C45.541 8.53539 45.3055 8.44143 44.9916 8.44143C44.7121 8.44143 44.49 8.50471 44.3254 8.63127C44.1646 8.75399 44.0497 8.92085 43.9808 9.1318V12.7043C43.9808 12.8194 43.9559 12.8999 43.9062 12.9459C43.8602 12.9881 43.7798 13.0092 43.665 13.0092H42.4819C42.3671 13.0092 42.2847 12.9881 42.235 12.9459C42.189 12.8999 42.1661 12.8194 42.1661 12.7043V9.64377C42.1661 9.22576 42.0799 8.92085 41.9076 8.72906C41.7354 8.53731 41.5094 8.44143 41.2299 8.44143C40.9658 8.44143 40.7533 8.50662 40.5925 8.63706C40.4317 8.76744 40.3073 8.93234 40.2192 9.1318V12.7043C40.2192 12.8194 40.1943 12.8999 40.1446 12.9459C40.0986 12.9881 40.0182 13.0092 39.9033 13.0092H38.7203C38.6054 13.0092 38.5231 12.9881 38.4733 12.9459C38.4274 12.8999 38.4044 12.8194 38.4044 12.7043V7.88341C38.4044 7.79137 38.4235 7.72043 38.4619 7.67056C38.5422 7.56315 38.6379 7.45387 38.749 7.34263C38.8639 7.23144 39.0036 7.11254 39.1682 6.98598C39.218 6.94759 39.2659 6.92845 39.3118 6.92845C39.3539 6.92845 39.4018 6.94759 39.4554 6.98598C39.6162 7.11254 39.754 7.23335 39.8689 7.34842C39.9837 7.46344 40.0852 7.58234 40.1733 7.70507H40.2019C40.3321 7.54017 40.535 7.37714 40.8107 7.21607C41.0864 7.05501 41.4807 6.97445 41.9938 6.97445C42.4838 6.97445 42.8476 7.04926 43.0849 7.19884C43.3223 7.34454 43.5157 7.51906 43.665 7.72235ZM50.8265 13.153C50.2634 13.153 49.8155 12.9958 49.4827 12.6813C49.1534 12.363 48.9887 11.9258 48.9887 11.3697C48.9887 11.082 49.0402 10.8154 49.1436 10.57C49.2509 10.3207 49.4347 10.1021 49.6949 9.91416C49.9591 9.72241 50.3266 9.569 50.7976 9.45393C51.2724 9.33886 51.8772 9.27175 52.6123 9.25261C52.6123 8.90357 52.5246 8.65237 52.3481 8.49897C52.1761 8.34556 51.9159 8.26888 51.5675 8.26888C51.2533 8.26888 50.997 8.32253 50.7976 8.42994C50.5986 8.53731 50.4741 8.61021 50.4246 8.64855C50.3707 8.69454 50.3055 8.71182 50.2291 8.70034C50.1257 8.68497 50.0149 8.65812 49.8958 8.61978C49.7812 8.58144 49.6567 8.53731 49.5229 8.48748C49.5038 8.47977 49.4827 8.46828 49.4597 8.45297C49.4366 8.43377 49.4234 8.40692 49.4195 8.37241C49.4195 8.35322 49.4215 8.33024 49.4254 8.30339C49.4288 8.27271 49.4386 8.219 49.4538 8.14227C49.469 8.06559 49.492 7.97163 49.5229 7.86039C49.5533 7.74532 49.5822 7.65715 49.6091 7.59579C49.6435 7.53055 49.7008 7.46919 49.7812 7.4117C49.8463 7.35799 50.0434 7.27169 50.3727 7.15279C50.702 7.0339 51.1788 6.97445 51.8027 6.97445C53.5218 6.97445 54.3814 7.81248 54.3814 9.48844V12.7445C54.3814 12.8174 54.3603 12.8807 54.3182 12.9344C54.28 12.9843 54.2128 13.0092 54.1173 13.0092H53.2557C53.1945 13.0092 53.1391 13.0015 53.0891 12.9862C53.043 12.967 52.9994 12.9325 52.9573 12.8826L52.601 12.4224H52.5608C52.3849 12.6794 52.1472 12.8654 51.8488 12.9804C51.5537 13.0955 51.2131 13.153 50.8265 13.153ZM51.4582 11.8183C51.8105 11.8183 52.0766 11.7282 52.2565 11.548C52.4363 11.3677 52.551 11.1817 52.601 10.9899V10.3514C52.0688 10.3514 51.6689 10.3936 51.4008 10.478C51.1367 10.5585 50.9603 10.6659 50.8725 10.8001C50.7843 10.9305 50.7402 11.0724 50.7402 11.2258C50.7402 11.4482 50.8093 11.6036 50.947 11.6918C51.0847 11.7762 51.2553 11.8183 51.4582 11.8183ZM57.6894 8.21134H57.7124C57.9996 7.41362 58.5161 7.01475 59.263 7.01475C59.3585 7.01475 59.4369 7.02049 59.4982 7.03198C59.5595 7.03964 59.6016 7.04735 59.6246 7.05501C59.682 7.0742 59.7109 7.11828 59.7109 7.18731V8.57373C59.7109 8.69263 59.6418 8.72523 59.5041 8.67157C59.458 8.65238 59.3914 8.63318 59.3032 8.61403C59.2189 8.59101 59.1003 8.57952 58.9469 8.57952C58.5529 8.57952 58.2446 8.72523 58.0226 9.01673C57.8001 9.30435 57.6894 9.69747 57.6894 10.196V12.7043C57.6894 12.8194 57.6644 12.8999 57.6144 12.9459C57.5688 12.9881 57.4884 13.0092 57.3733 13.0092H56.1902C56.0756 13.0092 55.9932 12.9881 55.9433 12.9459C55.8977 12.8999 55.8746 12.8194 55.8746 12.7043V7.88341C55.8746 7.79137 55.8938 7.72043 55.932 7.67056C56.0124 7.56315 56.1079 7.45387 56.2192 7.34263C56.3338 7.23144 56.4735 7.11254 56.6382 6.98598C56.669 6.96296 56.6994 6.94759 56.7303 6.93994C56.7607 6.93228 56.7876 6.92845 56.8107 6.92845C56.8641 6.92845 56.918 6.94759 56.9714 6.98598C57.289 7.23527 57.5115 7.44813 57.6374 7.62451C57.6722 7.67056 57.6894 7.72426 57.6894 7.78563V8.21134ZM63.2428 13.153C61.9642 13.153 61.3247 12.4876 61.3247 11.1568V8.45871H60.6758C60.5607 8.45871 60.4803 8.43569 60.4342 8.38964C60.3921 8.33981 60.3715 8.25734 60.3715 8.14227V7.43467C60.3715 7.31965 60.3921 7.2391 60.4342 7.19305C60.4803 7.14322 60.5607 7.11828 60.6758 7.11828H61.3247V6.19209C61.3247 6.10004 61.3438 6.02905 61.382 5.97923C61.5428 5.76828 61.7785 5.54011 62.0882 5.29465C62.1421 5.25627 62.1896 5.23712 62.2318 5.23712C62.2779 5.23712 62.3239 5.25627 62.37 5.29465C62.5346 5.42121 62.6724 5.54011 62.7831 5.6513C62.8983 5.76254 62.9958 5.87182 63.0762 5.97923C63.1144 6.02905 63.1335 6.10004 63.1335 6.19209V7.11828H64.1499C64.2651 7.11828 64.3435 7.14322 64.3856 7.19305C64.4317 7.2391 64.4547 7.31965 64.4547 7.43467V8.14227C64.4547 8.25734 64.4317 8.33981 64.3856 8.38964C64.3435 8.43569 64.2651 8.45871 64.1499 8.45871H63.1335V10.8404C63.1335 11.454 63.3555 11.7608 63.8 11.7608C63.8686 11.7608 63.9318 11.7551 63.9892 11.7436C64.047 11.7282 64.0965 11.7129 64.1386 11.6975C64.219 11.6669 64.2744 11.6554 64.3053 11.663C64.3396 11.6707 64.3704 11.7129 64.3969 11.7896L64.7301 12.6813C64.7645 12.7771 64.7414 12.8462 64.661 12.8884C64.6037 12.9152 64.464 12.9651 64.242 13.038C64.024 13.1146 63.6907 13.153 63.2428 13.153ZM33.2128 22.8274C32.8184 22.8274 32.5179 22.7775 32.3111 22.6778C32.1082 22.5781 31.9704 22.4151 31.8976 22.1888C31.8287 21.9625 31.7943 21.6615 31.7943 21.2856V15.4982C31.7943 15.3871 31.8134 15.3027 31.8517 15.2451C32.024 14.992 32.2652 14.7255 32.5753 14.4455C32.6327 14.3994 32.6825 14.3765 32.7246 14.3765C32.7706 14.3765 32.8184 14.3994 32.8682 14.4455C33.0367 14.5912 33.1783 14.7312 33.2932 14.8654C33.4081 14.9959 33.5076 15.1224 33.5918 15.2451C33.6301 15.3065 33.6493 15.3909 33.6493 15.4982V20.601C33.6493 20.858 33.6952 21.0421 33.7871 21.1533C33.879 21.2645 34.0513 21.3201 34.3039 21.3201L36.0671 21.3144C36.1589 21.3144 36.2278 21.3297 36.2738 21.3604C36.3733 21.4294 36.4767 21.5119 36.5839 21.6078C36.6911 21.7036 36.8041 21.8187 36.9227 21.953C36.961 22.0028 36.9801 22.0431 36.9801 22.0737C36.9801 22.1083 36.961 22.1466 36.9227 22.1888C36.8041 22.3231 36.6911 22.4381 36.5839 22.534C36.4767 22.6299 36.3733 22.7123 36.2738 22.7813C36.2202 22.8121 36.1512 22.8274 36.0671 22.8274H33.2128ZM40.5293 22.9712C39.8823 22.9712 39.3195 22.8676 38.8409 22.6606C38.3623 22.4496 37.9909 22.1236 37.7268 21.6826C37.4626 21.2415 37.3305 20.672 37.3305 19.974C37.3305 18.927 37.5985 18.135 38.1345 17.5981C38.6705 17.0611 39.3826 16.7926 40.2709 16.7926C40.849 16.7926 41.3372 16.8962 41.7354 17.1033C42.1374 17.3104 42.4417 17.5961 42.6484 17.9605C42.859 18.3248 42.9643 18.7409 42.9643 19.2088C42.9643 19.6652 42.8476 19.9835 42.614 20.1638C42.3805 20.3441 42.0397 20.4342 41.5918 20.4342H39.128C39.1586 20.8292 39.3022 21.1303 39.5588 21.3374C39.8191 21.5445 40.1714 21.6481 40.6155 21.6481C40.9677 21.6481 41.2491 21.5963 41.4597 21.4927C41.6741 21.3853 41.8234 21.3009 41.9076 21.2396C41.9804 21.1859 42.0627 21.161 42.1546 21.1648C42.2273 21.1648 42.3307 21.1801 42.4647 21.2108C42.6025 21.2377 42.7384 21.2895 42.8725 21.3661C42.9682 21.416 43.016 21.485 43.016 21.5733C43.016 21.6231 43.0064 21.6941 42.9873 21.7861C42.9758 21.8398 42.9567 21.9184 42.9299 22.022C42.9031 22.1217 42.8686 22.2157 42.8265 22.3039C42.8035 22.346 42.7671 22.3863 42.7174 22.4247C42.6408 22.4784 42.5164 22.5493 42.3441 22.6375C42.1756 22.7258 41.944 22.8024 41.6492 22.8676C41.3544 22.9367 40.9811 22.9712 40.5293 22.9712ZM39.1165 19.2549H40.9887C41.184 19.2549 41.2817 19.1648 41.2817 18.9845C41.2817 18.7122 41.1955 18.484 41.0232 18.2999C40.8548 18.1119 40.6002 18.018 40.2594 18.018C39.888 18.018 39.6143 18.1369 39.4382 18.3747C39.2659 18.6125 39.1586 18.9058 39.1165 19.2549ZM46.3067 22.9712C45.7975 22.9712 45.363 22.8466 45.0031 22.5972C44.647 22.3441 44.3752 21.9971 44.1876 21.556C44.0038 21.1111 43.9119 20.5991 43.9119 20.02C43.9119 19.2568 44.0459 18.6393 44.3139 18.1676C44.5858 17.692 44.9667 17.343 45.4568 17.1206C45.9507 16.8981 46.5326 16.7869 47.2026 16.7869C47.4324 16.7869 47.6219 16.7984 47.7712 16.8214C47.9244 16.8444 48.0334 16.8655 48.0985 16.8847V14.7389C48.0985 14.6468 48.1177 14.5759 48.156 14.526C48.3168 14.3151 48.5522 14.0869 48.8623 13.8414C48.916 13.8031 48.9638 13.7839 49.0059 13.7839C49.0559 13.7839 49.1034 13.8031 49.1495 13.8414C49.3141 13.968 49.4518 14.0869 49.5631 14.1981C49.6778 14.3093 49.7753 14.4186 49.8557 14.526C49.8944 14.5759 49.9135 14.6468 49.9135 14.7389V22.5627C49.9135 22.6356 49.8885 22.6989 49.8385 22.7526C49.789 22.8024 49.7258 22.8274 49.6493 22.8274H48.7934C48.7322 22.8274 48.6767 22.8197 48.6269 22.8044C48.5809 22.7852 48.5369 22.7507 48.4948 22.7008L48.1388 22.2406H48.0985C48.0488 22.3173 47.9588 22.4151 47.8286 22.534C47.7023 22.649 47.5166 22.7507 47.2715 22.8389C47.0303 22.9271 46.7087 22.9712 46.3067 22.9712ZM46.8638 21.4985C47.2084 21.4985 47.4783 21.4333 47.6735 21.3029C47.8726 21.1725 48.0143 21.0076 48.0985 20.8081V18.3977C48.0373 18.3593 47.9358 18.3133 47.7941 18.2596C47.6525 18.2059 47.4534 18.1791 47.1969 18.1791C46.7221 18.1791 46.3661 18.3344 46.1287 18.6451C45.8913 18.9557 45.7726 19.3737 45.7726 19.8992C45.7726 20.4438 45.8722 20.8465 46.0713 21.1073C46.2704 21.3681 46.5345 21.4985 46.8638 21.4985ZM57.1493 17.4887V22.1543C57.1493 23.2742 56.8298 24.1275 56.1902 24.7143C55.5546 25.3011 54.6818 25.5945 53.5713 25.5945C53.1121 25.5945 52.7485 25.56 52.4804 25.4909C52.2124 25.4258 52.0095 25.3625 51.8718 25.3011C51.7836 25.2589 51.7262 25.2148 51.6993 25.1688C51.6611 25.1074 51.617 25.0173 51.5675 24.8984C51.5214 24.7795 51.4773 24.6491 51.4351 24.5072C51.4239 24.4535 51.4219 24.4133 51.4293 24.3864C51.4449 24.3481 51.4734 24.3078 51.5155 24.2656C51.5846 24.1966 51.6821 24.116 51.8086 24.024C51.9384 23.9319 52.0384 23.8725 52.107 23.8456C52.18 23.8188 52.2467 23.8226 52.3079 23.8572C52.4079 23.9108 52.5495 23.9703 52.7333 24.0355C52.9205 24.1045 53.1832 24.139 53.5199 24.139C54.056 24.139 54.4922 24.0009 54.8293 23.7248C55.166 23.4487 55.3346 23.023 55.3346 22.4477V22.2406H55.3116C55.2273 22.348 55.1185 22.4573 54.9842 22.5685C54.8504 22.6797 54.6759 22.7737 54.4618 22.8504C54.2511 22.9271 53.9796 22.9654 53.6463 22.9654C53.068 22.9654 52.5932 22.8408 52.2222 22.5915C51.8546 22.3384 51.5826 21.9913 51.4067 21.5502C51.2342 21.1092 51.148 20.6068 51.148 20.043C51.148 19.4255 51.2494 18.8713 51.4523 18.3804C51.6552 17.8895 51.9963 17.5021 52.4746 17.2183C52.9534 16.9307 53.6081 16.7869 54.4388 16.7869C54.9367 16.7869 55.3537 16.8233 55.6909 16.8962C56.0315 16.9691 56.3167 17.0592 56.5465 17.1666C56.7764 17.274 56.9773 17.3813 57.1493 17.4887ZM54.3755 18.1791C53.9315 18.1791 53.5924 18.3286 53.3591 18.6278C53.1254 18.927 53.0087 19.391 53.0087 20.02C53.0087 21.0057 53.4145 21.4985 54.2261 21.4985C54.5441 21.4985 54.7872 21.4333 54.9558 21.3029C55.1239 21.1725 55.2503 21.0076 55.3346 20.8081V18.4322C55.2503 18.3709 55.1317 18.3133 54.9788 18.2596C54.8254 18.2059 54.6245 18.1791 54.3755 18.1791ZM61.5829 22.9712C60.9361 22.9712 60.373 22.8676 59.8947 22.6606C59.4159 22.4496 59.0444 22.1236 58.7803 21.6826C58.5161 21.2415 58.3843 20.672 58.3843 19.974C58.3843 18.927 58.6523 18.135 59.188 17.5981C59.7241 17.0611 60.4362 16.7926 61.3247 16.7926C61.9025 16.7926 62.3911 16.8962 62.789 17.1033C63.1908 17.3104 63.4952 17.5961 63.702 17.9605C63.9127 18.3248 64.0181 18.7409 64.0181 19.2088C64.0181 19.6652 63.9014 19.9835 63.6677 20.1638C63.4344 20.3441 63.0933 20.4342 62.6454 20.4342H60.1818C60.2122 20.8292 60.3558 21.1303 60.6126 21.3374C60.8728 21.5445 61.2252 21.6481 61.6692 21.6481C62.0215 21.6481 62.3028 21.5963 62.5136 21.4927C62.7277 21.3853 62.8772 21.3009 62.9615 21.2396C63.034 21.1859 63.1164 21.161 63.2085 21.1648C63.281 21.1648 63.3844 21.1801 63.5182 21.2108C63.6564 21.2377 63.7922 21.2895 63.9259 21.3661C64.022 21.416 64.0695 21.485 64.0695 21.5733C64.0695 21.6231 64.0602 21.6941 64.0411 21.7861C64.0293 21.8398 64.0102 21.9184 63.9838 22.022C63.9568 22.1217 63.9225 22.2157 63.8804 22.3039C63.8573 22.346 63.8211 22.3863 63.7711 22.4247C63.6946 22.4784 63.5702 22.5493 63.3977 22.6375C63.2296 22.7258 62.9978 22.8024 62.7027 22.8676C62.4082 22.9367 62.0348 22.9712 61.5829 22.9712ZM60.1701 19.2549H62.0426C62.2377 19.2549 62.3352 19.1648 62.3352 18.9845C62.3352 18.7122 62.2494 18.484 62.0769 18.2999C61.9083 18.1119 61.654 18.018 61.3129 18.018C60.9419 18.018 60.668 18.1369 60.4921 18.3747C60.3195 18.6125 60.2122 18.9058 60.1701 19.2549ZM67.0962 18.0295H67.1192C67.4064 17.2318 67.9234 16.8329 68.6698 16.8329C68.7654 16.8329 68.8443 16.8387 68.9055 16.8502C68.9668 16.8578 69.0084 16.8655 69.0315 16.8732C69.0893 16.8924 69.1177 16.9365 69.1177 17.0055V18.3919C69.1177 18.5108 69.0491 18.5434 68.9109 18.4898C68.8653 18.4706 68.7982 18.4514 68.71 18.4322C68.6257 18.4092 68.5071 18.3977 68.3542 18.3977C67.9597 18.3977 67.6514 18.5434 67.4294 18.8349C67.2074 19.1225 67.0962 19.5157 67.0962 20.0142V22.5225C67.0962 22.6375 67.0712 22.7181 67.0217 22.7641C66.9756 22.8063 66.8953 22.8274 66.7806 22.8274H65.5976C65.4824 22.8274 65.4001 22.8063 65.3506 22.7641C65.3045 22.7181 65.2815 22.6375 65.2815 22.5225V17.7016C65.2815 17.6096 65.3006 17.5386 65.3388 17.4887C65.4192 17.3813 65.5152 17.2721 65.626 17.1608C65.7412 17.0496 65.8808 16.9307 66.0455 16.8042C66.0759 16.7811 66.1067 16.7658 66.1371 16.7581C66.168 16.7505 66.1945 16.7466 66.2175 16.7466C66.2714 16.7466 66.3248 16.7658 66.3782 16.8042C66.6963 17.0534 66.9183 17.2663 67.0447 17.4427C67.079 17.4887 67.0962 17.5424 67.0962 17.6038V18.0295Z" fill="url(#paint1_linear_857_11887)"/>
</g>
<defs>
<filter id="filter0_i_857_11887" x="0" y="-1" width="26.9531" height="28" filterUnits="userSpaceOnUse" color-interpolation-filters="sRGB">
<feFlood flood-opacity="0" result="BackgroundImageFix"/>
<feBlend mode="normal" in="SourceGraphic" in2="BackgroundImageFix" result="shape"/>
<feColorMatrix in="SourceAlpha" type="matrix" values="0 0 0 0 0 0 0 0 0 0 0 0 0 0 0 0 0 0 127 0" result="hardAlpha"/>
<feOffset dy="-1"/>
<feGaussianBlur stdDeviation="1.3"/>
<feComposite in2="hardAlpha" operator="arithmetic" k2="-1" k3="1"/>
<feColorMatrix type="matrix" values="0 0 0 0 0.625 0 0 0 0 0.625 0 0 0 0 0.625 0 0 0 0.7 0"/>
<feBlend mode="normal" in2="shape" result="effect1_innerShadow_857_11887"/>
</filter>
<filter id="filter1_i_857_11887" x="31.3906" y="4.33306" width="37.7266" height="21.2614" filterUnits="userSpaceOnUse" color-interpolation-filters="sRGB">
<feFlood flood-opacity="0" result="BackgroundImageFix"/>
<feBlend mode="normal" in="SourceGraphic" in2="BackgroundImageFix" result="shape"/>
<feColorMatrix in="SourceAlpha" type="matrix" values="0 0 0 0 0 0 0 0 0 0 0 0 0 0 0 0 0 0 127 0" result="hardAlpha"/>
<feOffset dy="-0.6"/>
<feGaussianBlur stdDeviation="0.15"/>
<feComposite in2="hardAlpha" operator="arithmetic" k2="-1" k3="1"/>
<feColorMatrix type="matrix" values="0 0 0 0 0.625 0 0 0 0 0.625 0 0 0 0 0.625 0 0 0 0.7 0"/>
<feBlend mode="normal" in2="shape" result="effect1_innerShadow_857_11887"/>
</filter>
<linearGradient id="paint0_linear_857_11887" x1="3" y1="2.5" x2="13.4768" y2="27" gradientUnits="userSpaceOnUse">
<stop offset="0.129808" stop-color="#18181B"/>
<stop offset="1" stop-color="#171732"/>
</linearGradient>
<linearGradient id="paint1_linear_857_11887" x1="10.5" y1="-12.5" x2="28.4969" y2="45.1215" gradientUnits="userSpaceOnUse">
<stop offset="0.129808" stop-color="#18181B"/>
<stop offset="1" stop-color="#020211"/>
</linearGradient>
</defs>
</svg>
