<svg width="27" height="27" viewBox="0 0 27 27" fill="none" xmlns="http://www.w3.org/2000/svg">
<g filter="url(#filter0_i_937_11815)">
<path d="M26.9536 13.5C26.9536 6.04416 20.9199 0 13.4768 0C6.03378 0 0 6.04416 0 13.5C0 20.9558 6.03378 27 13.4768 27C20.9199 27 26.9536 20.9558 26.9536 13.5Z" fill="url(#paint0_linear_937_11815)"/>
</g>
<path fill-rule="evenodd" clip-rule="evenodd" d="M16.9231 6.21917C16.0943 6.10734 15.0078 6.10734 13.4708 6.10734H13.2697V6.347C13.2697 7.44134 13.2697 8.31997 13.1731 9.01495C13.0765 9.73383 12.8673 10.3409 12.3845 10.8202C11.9016 11.2994 11.29 11.5071 10.5658 11.603C9.86566 11.6988 8.98045 11.6988 7.87795 11.6988H7.63655V15.1016C7.63655 16.6193 7.63654 17.7057 7.74921 18.5204C7.86188 19.3192 8.06305 19.7825 8.40105 20.126C8.73905 20.4695 9.20579 20.6692 10.0186 20.781C10.8474 20.8928 11.9338 20.8928 13.4628 20.8928C13.7927 20.8928 14.0663 21.1644 14.0663 21.4919C14.0663 21.8194 13.7927 22.091 13.4628 22.091H13.4145C11.9418 22.091 10.7669 22.091 9.85757 21.9712C8.91606 21.8434 8.15156 21.5798 7.54804 20.9887C6.94447 20.3816 6.67891 19.6308 6.5582 18.6882C6.4375 17.7776 6.4375 16.6193 6.4375 15.1496V11.1077C6.4375 10.94 6.50189 10.7882 6.61456 10.6684L9.40696 7.90461L12.1994 5.14084C12.312 4.99705 12.481 4.90918 12.6741 4.90918H13.5271C15.0078 4.90918 16.1747 4.90918 17.0921 5.02901C18.0336 5.15679 18.7981 5.42041 19.4017 6.01947C20.0052 6.61857 20.2707 7.37742 20.3995 8.31201C20.5202 9.2226 20.5202 10.3888 20.5202 11.8506V14.7274C20.5202 15.0548 20.2466 15.3265 19.9167 15.3265C19.5868 15.3265 19.3132 15.0548 19.3132 14.7274V11.8985C19.3132 10.3729 19.3132 9.29452 19.2005 8.47176C19.0878 7.665 18.8867 7.20168 18.5487 6.86619C18.2107 6.5307 17.7439 6.32305 16.9311 6.21917H16.9231Z" fill="white"/>
<path d="M17.0853 15.2671C17.1626 15.2671 17.2381 15.2906 17.302 15.3342C17.35 15.3669 17.3896 15.41 17.4184 15.4598L17.4437 15.5116V15.5125L17.661 16.0361C18.0067 16.88 18.6432 17.5692 19.4518 17.981L19.6155 18.0596L20.231 18.3338C20.3011 18.3663 20.3606 18.4187 20.4023 18.4839C20.4439 18.5492 20.4664 18.6251 20.4664 18.7025C20.4664 18.7799 20.444 18.8558 20.4023 18.9211C20.3711 18.97 20.3299 19.0115 20.2817 19.0429L20.231 19.0707L19.5801 19.3607C18.7156 19.7488 18.0273 20.4474 17.6519 21.3181L17.4409 21.8042L17.4404 21.8047C17.4111 21.8749 17.3619 21.9352 17.2987 21.9773C17.2355 22.0194 17.1612 22.042 17.0853 22.042C17.0093 22.042 16.935 22.0194 16.8718 21.9773C16.8244 21.9457 16.7847 21.904 16.7555 21.8555L16.7302 21.8047L16.7297 21.8042L16.5186 21.3181C16.1662 20.5019 15.5394 19.8373 14.7498 19.4379L14.5899 19.3617L13.939 19.0707C13.8863 19.0464 13.8399 19.0113 13.8022 18.9676L13.7673 18.9211C13.7254 18.8558 13.7031 18.7796 13.7031 18.702C13.7031 18.644 13.7157 18.5867 13.7395 18.5342L13.7673 18.4834C13.8089 18.4183 13.8685 18.3663 13.9386 18.3338L14.5535 18.0596C15.3846 17.6857 16.0524 17.0263 16.4368 16.2038L16.5095 16.037L16.7268 15.5125V15.5116C16.7551 15.4396 16.8046 15.3778 16.8685 15.3342C16.9324 15.2906 17.0079 15.2671 17.0853 15.2671Z" fill="white" stroke="#18181B" stroke-width="0.2"/>
<path d="M14.2786 6.30007C14.2786 5.5319 13.6569 4.90918 12.8901 4.90918H12.7411C9.25974 4.90918 6.4375 7.73623 6.4375 11.2236V13.2546H7.33594C11.1703 13.2546 14.2786 10.141 14.2786 6.30007Z" fill="white"/>
<defs>
<filter id="filter0_i_937_11815" x="0" y="-1" width="26.9531" height="28" filterUnits="userSpaceOnUse" color-interpolation-filters="sRGB">
<feFlood flood-opacity="0" result="BackgroundImageFix"/>
<feBlend mode="normal" in="SourceGraphic" in2="BackgroundImageFix" result="shape"/>
<feColorMatrix in="SourceAlpha" type="matrix" values="0 0 0 0 0 0 0 0 0 0 0 0 0 0 0 0 0 0 127 0" result="hardAlpha"/>
<feOffset dy="-1"/>
<feGaussianBlur stdDeviation="1.3"/>
<feComposite in2="hardAlpha" operator="arithmetic" k2="-1" k3="1"/>
<feColorMatrix type="matrix" values="0 0 0 0 0.625 0 0 0 0 0.625 0 0 0 0 0.625 0 0 0 0.7 0"/>
<feBlend mode="normal" in2="shape" result="effect1_innerShadow_937_11815"/>
</filter>
<linearGradient id="paint0_linear_937_11815" x1="3" y1="2.5" x2="13.4768" y2="27" gradientUnits="userSpaceOnUse">
<stop offset="0.129808" stop-color="#18181B"/>
<stop offset="1" stop-color="#171732"/>
</linearGradient>
</defs>
</svg>
