<svg width="55" height="55" viewBox="0 0 55 55" fill="none" xmlns="http://www.w3.org/2000/svg">
<rect width="55" height="55" rx="27.5" fill="url(#paint0_linear_919_15172)"/>
<path fill-rule="evenodd" clip-rule="evenodd" d="M34.5291 12.6685C32.8378 12.4407 30.6209 12.4407 27.4846 12.4407H27.0741V12.9289C27.0741 15.1581 27.0741 16.9479 26.877 18.3636C26.68 19.828 26.253 21.0646 25.2678 22.0409C24.2825 23.0172 23.0345 23.4403 21.5567 23.6355C20.1281 23.8308 18.3218 23.8308 16.0721 23.8308H15.5795V30.7624C15.5795 33.854 15.5795 36.0669 15.8094 37.7266C16.0393 39.3538 16.4498 40.2975 17.1395 40.9972C17.8292 41.6969 18.7816 42.1037 20.4401 42.3315C22.1314 42.5593 24.3482 42.5593 27.4682 42.5593C28.1414 42.5593 28.6997 43.1125 28.6997 43.7796C28.6997 44.4468 28.1414 45 27.4682 45H27.3696C24.3646 45 21.9672 45 20.1116 44.7559C18.1904 44.4956 16.6304 43.9586 15.3989 42.7545C14.1673 41.5179 13.6254 39.9884 13.3791 38.0683C13.1328 36.2134 13.1328 33.854 13.1328 30.8601V22.6267C13.1328 22.285 13.2642 21.9758 13.4941 21.7318L19.1921 16.1018L24.8901 10.4719C25.12 10.179 25.4648 10 25.8589 10H27.5995C30.6209 10 33.002 10 34.8739 10.2441C36.7952 10.5044 38.3551 11.0414 39.5867 12.2617C40.8183 13.4821 41.3601 15.0279 41.6229 16.9317C41.8692 18.7866 41.8692 21.1622 41.8692 24.1399V30C41.8692 30.6671 41.3109 31.2204 40.6376 31.2204C39.9644 31.2204 39.4061 30.6671 39.4061 30V24.2376C39.4061 21.1297 39.4061 18.9331 39.1762 17.2571C38.9463 15.6137 38.5358 14.6699 37.8461 13.9865C37.1564 13.3031 36.204 12.8801 34.5455 12.6685H34.5291Z" fill="white"/>
<path d="M35.6854 44.4558L36.1159 43.4661C36.872 41.7149 38.2576 40.3105 39.9992 39.5299L41.3292 38.9389C41.4898 38.8646 41.6259 38.746 41.7212 38.5969C41.8165 38.4479 41.8672 38.2747 41.8672 38.0978C41.8672 37.9209 41.8165 37.7478 41.7212 37.5987C41.6259 37.4497 41.4898 37.331 41.3292 37.2567L40.0727 36.6972C38.2873 35.8944 36.878 34.4381 36.1351 32.6281L35.6924 31.5615C35.6274 31.396 35.5139 31.2539 35.3669 31.1537C35.2199 31.0536 35.0461 31 34.8681 31C34.6902 31 34.5164 31.0536 34.3694 31.1537C34.2223 31.2539 34.1089 31.396 34.0439 31.5615L33.6011 32.6299C32.8575 34.4395 31.4476 35.8952 29.6618 36.6972L28.4071 37.255C28.2459 37.329 28.1094 37.4477 28.0137 37.597C27.918 37.7462 27.8672 37.9197 27.8672 38.0969C27.8672 38.2742 27.918 38.4477 28.0137 38.5969C28.1094 38.7462 28.2459 38.8648 28.4071 38.9389L29.7353 39.5317C31.4773 40.3114 32.8635 41.7152 33.6204 43.4661L34.0509 44.4558C34.1182 44.617 34.2317 44.7547 34.3771 44.8515C34.5225 44.9483 34.6934 45 34.8681 45C35.0429 45 35.2138 44.9483 35.3592 44.8515C35.5046 44.7547 35.6181 44.617 35.6854 44.4558Z" fill="white"/>
<path d="M29.1328 12.8333C29.1328 11.2685 27.8643 10 26.2995 10H25.9956C18.8917 10 13.1328 15.7588 13.1328 22.8627V27H14.9661C22.7902 27 29.1328 20.6574 29.1328 12.8333V12.8333Z" fill="white"/>
<defs>
<linearGradient id="paint0_linear_919_15172" x1="-1.253" y1="55" x2="65.9167" y2="32.2935" gradientUnits="userSpaceOnUse">
<stop stop-color="#3A3DFF"/>
<stop offset="0.586538" stop-color="#4F4FDF"/>
</linearGradient>
</defs>
</svg>
