<svg width="74" height="27" viewBox="0 0 74 27" fill="none" xmlns="http://www.w3.org/2000/svg">
<g filter="url(#filter0_i_857_11880)">
<path d="M26.2581 13.5C26.2581 6.04416 20.38 0 13.129 0C5.87807 0 0 6.04416 0 13.5C0 20.9558 5.87807 27 13.129 27C20.38 27 26.2581 20.9558 26.2581 13.5Z" fill="url(#paint0_linear_857_11880)"/>
</g>
<path fill-rule="evenodd" clip-rule="evenodd" d="M16.4884 6.21917C15.681 6.10734 14.6226 6.10734 13.1253 6.10734H12.9293V6.347C12.9293 7.44134 12.9293 8.31997 12.8352 9.01495C12.7411 9.73383 12.5373 10.3409 12.0669 10.8202C11.5965 11.2994 11.0007 11.5071 10.2952 11.603C9.61313 11.6988 8.75077 11.6988 7.67672 11.6988H7.44154V15.1016C7.44154 16.6193 7.44154 17.7057 7.5513 18.5204C7.66106 19.3192 7.85704 19.7825 8.18631 20.126C8.51559 20.4695 8.97028 20.6692 9.76208 20.781C10.5695 20.8928 11.6279 20.8928 13.1174 20.8928C13.4388 20.8928 13.7054 21.1644 13.7054 21.4919C13.7054 21.8194 13.4388 22.091 13.1174 22.091H13.0704C11.6357 22.091 10.4912 22.091 9.60525 21.9712C8.68803 21.8434 7.94326 21.5798 7.35532 20.9887C6.76733 20.3816 6.50861 19.6308 6.39103 18.6882C6.27344 17.7776 6.27344 16.6193 6.27344 15.1496V11.1077C6.27344 10.94 6.33617 10.7882 6.44593 10.6684L9.16626 7.90461L11.8866 5.14084C11.9964 4.99705 12.161 4.90918 12.3491 4.90918H13.1801C14.6226 4.90918 15.7594 4.90918 16.6531 5.02901C17.5703 5.15679 18.3151 5.42041 18.903 6.01947C19.491 6.61857 19.7497 7.37742 19.8752 8.31201C19.9927 9.2226 19.9928 10.3888 19.9928 11.8506V14.7274C19.9928 15.0548 19.7262 15.3265 19.4048 15.3265C19.0834 15.3265 18.8168 15.0548 18.8168 14.7274V11.8985C18.8168 10.3729 18.8168 9.29452 18.7071 8.47176C18.5973 7.665 18.4013 7.20168 18.072 6.86619C17.7428 6.5307 17.2881 6.32305 16.4963 6.21917H16.4884Z" fill="white"/>
<path d="M17.0372 21.8238L17.2428 21.338C17.6038 20.4783 18.2653 19.7889 19.0967 19.4057L19.7317 19.1155C19.8084 19.0791 19.8734 19.0208 19.9189 18.9476C19.9644 18.8745 19.9886 18.7895 19.9886 18.7026C19.9886 18.6158 19.9644 18.5308 19.9189 18.4576C19.8734 18.3845 19.8084 18.3262 19.7317 18.2897L19.1318 18.0151C18.2794 17.621 17.6066 16.9061 17.2519 16.0175L17.0406 15.4939C17.0096 15.4127 16.9554 15.3429 16.8852 15.2937C16.815 15.2446 16.732 15.2183 16.6471 15.2183C16.5621 15.2183 16.4791 15.2446 16.409 15.2937C16.3387 15.3429 16.2846 15.4127 16.2536 15.4939L16.0422 16.0184C15.6872 16.9067 15.014 17.6214 14.1615 18.0151L13.5624 18.2889C13.4855 18.3252 13.4203 18.3835 13.3746 18.4568C13.3289 18.53 13.3047 18.6152 13.3047 18.7022C13.3047 18.7892 13.3289 18.8744 13.3746 18.9476C13.4203 19.0209 13.4855 19.0792 13.5624 19.1155L14.1966 19.4066C15.0282 19.7893 15.69 20.4785 16.0514 21.338L16.2569 21.8238C16.289 21.903 16.3432 21.9706 16.4126 22.0181C16.4821 22.0656 16.5636 22.091 16.6471 22.091C16.7305 22.091 16.8121 22.0656 16.8815 22.0181C16.9509 21.9706 17.0051 21.903 17.0372 21.8238Z" fill="white"/>
<path d="M13.9121 6.30007C13.9121 5.5319 13.3065 4.90918 12.5595 4.90918H12.4144C9.02285 4.90918 6.27344 7.73623 6.27344 11.2236V13.2546H7.14869C10.8841 13.2546 13.9121 10.141 13.9121 6.30007Z" fill="white"/>
<g filter="url(#filter1_i_857_11880)">
<path d="M35.0562 13.1472C34.5825 13.1472 34.189 13.1032 33.8757 13.0149C33.5661 12.9267 33.3162 12.8174 33.126 12.6871C32.9395 12.5528 32.7959 12.4205 32.6952 12.2901C32.6616 12.2402 32.6318 12.1923 32.6057 12.1463C32.5796 12.1002 32.5609 12.0485 32.5497 11.9909C32.5348 11.9142 32.5199 11.8145 32.505 11.6918C32.4901 11.5652 32.4882 11.4195 32.4994 11.2546C32.5031 11.1856 32.5162 11.1376 32.5385 11.1107C32.5646 11.0801 32.6076 11.057 32.6672 11.0417C32.7754 11.0149 32.9152 10.9919 33.0868 10.9727C33.2621 10.9497 33.3871 10.9381 33.4617 10.9381C33.54 10.9381 33.6034 10.9535 33.6519 10.9842C33.7004 11.0149 33.7582 11.0667 33.8254 11.1395C33.8999 11.2201 34.0286 11.3236 34.2113 11.4502C34.3942 11.5729 34.6757 11.6343 35.0562 11.6343C35.4217 11.6343 35.6977 11.5557 35.8842 11.3984C36.0707 11.2411 36.1639 11.0225 36.1639 10.7426C36.1639 10.593 36.1192 10.453 36.0296 10.3226C35.9439 10.1884 35.7853 10.0561 35.5541 9.92569C35.3229 9.79143 34.9928 9.65147 34.5638 9.50572C33.8551 9.26027 33.3442 8.95536 33.0309 8.59101C32.7176 8.22666 32.5609 7.72043 32.5609 7.07224C32.5609 6.53533 32.6877 6.08659 32.9414 5.72611C33.195 5.36559 33.5456 5.09328 33.9932 4.90919C34.4407 4.7251 34.9573 4.63306 35.5429 4.63306C35.9942 4.63306 36.3672 4.68867 36.6619 4.79989C36.9603 4.90727 37.1915 5.03001 37.3556 5.16805C37.5197 5.30231 37.626 5.41159 37.6745 5.49598C37.7044 5.54585 37.723 5.58419 37.7305 5.61105C37.7417 5.63407 37.7491 5.66667 37.7528 5.70883C37.7641 5.82773 37.7678 5.96003 37.7641 6.10578C37.7603 6.25153 37.7473 6.41643 37.7249 6.60052C37.7137 6.66189 37.6932 6.70405 37.6633 6.72708C37.6372 6.74627 37.5962 6.75585 37.5402 6.75585C37.1785 6.7635 36.8987 6.74436 36.701 6.69831C36.6227 6.67917 36.5705 6.65997 36.5444 6.64078C36.5183 6.62163 36.4847 6.59095 36.4437 6.54873C36.384 6.47588 36.2889 6.39149 36.1584 6.29562C36.0315 6.19591 35.8264 6.14604 35.5429 6.14604C35.1513 6.14604 34.8734 6.23808 34.7093 6.42217C34.5452 6.60244 34.4631 6.80572 34.4631 7.03198C34.4631 7.30046 34.5844 7.5114 34.8268 7.66481C35.0692 7.81439 35.4515 7.98503 35.9737 8.17678C36.4101 8.33407 36.785 8.50471 37.0983 8.6888C37.4116 8.87289 37.6503 9.10877 37.8144 9.3964C37.9822 9.68407 38.0662 10.0637 38.0662 10.5355C38.0662 11.1222 37.9337 11.6093 37.6689 11.9967C37.4079 12.3841 37.0498 12.6736 36.5947 12.8654C36.1434 13.0533 35.6306 13.1472 35.0562 13.1472ZM44.4498 7.72235C44.5878 7.54974 44.8004 7.38293 45.0876 7.22182C45.3785 7.05692 45.7869 6.97445 46.3128 6.97445C47.0588 6.97445 47.5978 7.17199 47.9298 7.56702C48.2617 7.96206 48.4278 8.55459 48.4278 9.34465V12.7043C48.4278 12.8194 48.4034 12.8999 48.3548 12.9459C48.3104 12.9881 48.2321 13.0092 48.1199 13.0092H46.9674C46.8555 13.0092 46.7754 12.9881 46.7268 12.9459C46.6821 12.8999 46.6597 12.8194 46.6597 12.7043V9.64377C46.6597 9.21422 46.5832 8.9074 46.4303 8.72331C46.2774 8.53539 46.048 8.44143 45.7422 8.44143C45.4699 8.44143 45.2535 8.50471 45.0932 8.63127C44.9365 8.75399 44.8246 8.92085 44.7575 9.1318V12.7043C44.7575 12.8194 44.7332 12.8999 44.6847 12.9459C44.64 12.9881 44.5617 13.0092 44.4498 13.0092H43.2973C43.1854 13.0092 43.1051 12.9881 43.0567 12.9459C43.0119 12.8999 42.9896 12.8194 42.9896 12.7043V9.64377C42.9896 9.22576 42.9056 8.92085 42.7378 8.72906C42.57 8.53731 42.3499 8.44143 42.0776 8.44143C41.8202 8.44143 41.6132 8.50662 41.4566 8.63706C41.2999 8.76744 41.1787 8.93234 41.0929 9.1318V12.7043C41.0929 12.8194 41.0687 12.8999 41.0202 12.9459C40.9754 12.9881 40.8971 13.0092 40.7852 13.0092H39.6327C39.5208 13.0092 39.4406 12.9881 39.3921 12.9459C39.3474 12.8999 39.325 12.8194 39.325 12.7043V7.88341C39.325 7.79137 39.3436 7.72043 39.3809 7.67056C39.4592 7.56315 39.5525 7.45387 39.6607 7.34263C39.7726 7.23144 39.9087 7.11254 40.0691 6.98598C40.1175 6.94759 40.1642 6.92845 40.2089 6.92845C40.25 6.92845 40.2966 6.94759 40.3488 6.98598C40.5055 7.11254 40.6398 7.23335 40.7517 7.34842C40.8635 7.46344 40.9624 7.58234 41.0482 7.70507H41.0761C41.203 7.54017 41.4006 7.37714 41.6692 7.21607C41.9377 7.05501 42.3219 6.97445 42.8217 6.97445C43.2991 6.97445 43.6535 7.04926 43.8847 7.19884C44.1159 7.34454 44.3043 7.51906 44.4498 7.72235ZM51.4265 13.153C50.8779 13.153 50.4416 12.9958 50.1174 12.6813C49.7966 12.363 49.6361 11.9258 49.6361 11.3697C49.6361 11.082 49.6863 10.8154 49.787 10.57C49.8916 10.3207 50.0706 10.1021 50.3241 9.91416C50.5814 9.72241 50.9395 9.569 51.3983 9.45393C51.8609 9.33886 52.4501 9.27175 53.1662 9.25261C53.1662 8.90357 53.0807 8.65237 52.9089 8.49897C52.7413 8.34556 52.4878 8.26888 52.1483 8.26888C51.8423 8.26888 51.5926 8.32253 51.3983 8.42994C51.2045 8.53731 51.0832 8.61021 51.035 8.64855C50.9825 8.69454 50.919 8.71182 50.8445 8.70034C50.7438 8.68497 50.6359 8.65812 50.5198 8.61978C50.4081 8.58144 50.2869 8.53731 50.1565 8.48748C50.1379 8.47977 50.1174 8.46828 50.0949 8.45297C50.0725 8.43377 50.0596 8.40692 50.0558 8.37241C50.0558 8.35322 50.0577 8.33024 50.0615 8.30339C50.0649 8.27271 50.0744 8.219 50.0892 8.14227C50.104 8.06559 50.1265 7.97163 50.1565 7.86039C50.1861 7.74532 50.2143 7.65715 50.2406 7.59579C50.274 7.53055 50.3298 7.46919 50.4081 7.4117C50.4716 7.35799 50.6636 7.27169 50.9844 7.15279C51.3052 7.0339 51.7697 6.97445 52.3775 6.97445C54.0523 6.97445 54.8897 7.81248 54.8897 9.48844V12.7445C54.8897 12.8174 54.8691 12.8807 54.8281 12.9344C54.7908 12.9843 54.7254 13.0092 54.6323 13.0092H53.793C53.7334 13.0092 53.6794 13.0015 53.6307 12.9862C53.5858 12.967 53.5433 12.9325 53.5023 12.8826L53.1552 12.4224H53.1161C52.9447 12.6794 52.7131 12.8654 52.4224 12.9804C52.135 13.0955 51.8032 13.153 51.4265 13.153ZM52.0419 11.8183C52.3851 11.8183 52.6444 11.7282 52.8196 11.548C52.9948 11.3677 53.1065 11.1817 53.1552 10.9899V10.3514C52.6367 10.3514 52.2472 10.3936 51.986 10.478C51.7287 10.5585 51.5568 10.6659 51.4713 10.8001C51.3854 10.9305 51.3424 11.0724 51.3424 11.2258C51.3424 11.4482 51.4098 11.6036 51.5439 11.6918C51.6781 11.7762 51.8442 11.8183 52.0419 11.8183ZM58.1122 8.21134H58.1347C58.4145 7.41362 58.9177 7.01475 59.6452 7.01475C59.7383 7.01475 59.8147 7.02049 59.8744 7.03198C59.9341 7.03964 59.9751 7.04735 59.9976 7.05501C60.0534 7.0742 60.0816 7.11828 60.0816 7.18731V8.57373C60.0816 8.69263 60.0143 8.72523 59.8801 8.67157C59.8353 8.65238 59.7703 8.63318 59.6844 8.61403C59.6023 8.59101 59.4867 8.57952 59.3373 8.57952C58.9535 8.57952 58.6532 8.72523 58.4369 9.01673C58.2201 9.30435 58.1122 9.69747 58.1122 10.196V12.7043C58.1122 12.8194 58.0879 12.8999 58.0392 12.9459C57.9948 12.9881 57.9165 13.0092 57.8043 13.0092H56.6518C56.5401 13.0092 56.4599 12.9881 56.4112 12.9459C56.3668 12.8999 56.3444 12.8194 56.3444 12.7043V7.88341C56.3444 7.79137 56.363 7.72043 56.4002 7.67056C56.4785 7.56315 56.5716 7.45387 56.68 7.34263C56.7917 7.23144 56.9278 7.11254 57.0882 6.98598C57.1183 6.96296 57.1479 6.94759 57.1779 6.93994C57.2075 6.93228 57.2338 6.92845 57.2562 6.92845C57.3083 6.92845 57.3608 6.94759 57.4128 6.98598C57.7222 7.23527 57.9389 7.44813 58.0616 7.62451C58.0955 7.67056 58.1122 7.72426 58.1122 7.78563V8.21134ZM63.5224 13.153C62.2768 13.153 61.6537 12.4876 61.6537 11.1568V8.45871H61.0216C60.9094 8.45871 60.8312 8.43569 60.7863 8.38964C60.7452 8.33981 60.7252 8.25734 60.7252 8.14227V7.43467C60.7252 7.31965 60.7452 7.2391 60.7863 7.19305C60.8312 7.14322 60.9094 7.11828 61.0216 7.11828H61.6537V6.19209C61.6537 6.10004 61.6724 6.02905 61.7096 5.97923C61.8662 5.76828 62.0958 5.54011 62.3976 5.29465C62.4501 5.25627 62.4964 5.23712 62.5374 5.23712C62.5823 5.23712 62.6272 5.25627 62.6721 5.29465C62.8325 5.42121 62.9666 5.54011 63.0745 5.6513C63.1867 5.76254 63.2817 5.87182 63.36 5.97923C63.3973 6.02905 63.4159 6.10004 63.4159 6.19209V7.11828H64.4061C64.5183 7.11828 64.5946 7.14322 64.6357 7.19305C64.6806 7.2391 64.703 7.31965 64.703 7.43467V8.14227C64.703 8.25734 64.6806 8.33981 64.6357 8.38964C64.5946 8.43569 64.5183 8.45871 64.4061 8.45871H63.4159V10.8404C63.4159 11.454 63.6322 11.7608 64.0652 11.7608C64.132 11.7608 64.1936 11.7551 64.2495 11.7436C64.3058 11.7282 64.354 11.7129 64.3951 11.6975C64.4734 11.6669 64.5273 11.6554 64.5574 11.663C64.5908 11.6707 64.6209 11.7129 64.6467 11.7896L64.9713 12.6813C65.0048 12.7771 64.9823 12.8462 64.904 12.8884C64.8482 12.9152 64.7121 12.9651 64.4958 13.038C64.2834 13.1146 63.9587 13.153 63.5224 13.153ZM34.2673 22.8274C33.8831 22.8274 33.5904 22.7775 33.3889 22.6778C33.1912 22.5781 33.057 22.4151 32.9861 22.1888C32.919 21.9625 32.8854 21.6615 32.8854 21.2856V15.4982C32.8854 15.3871 32.9041 15.3027 32.9414 15.2451C33.1092 14.992 33.3442 14.7255 33.6463 14.4455C33.7022 14.3994 33.7507 14.3765 33.7917 14.3765C33.8365 14.3765 33.8831 14.3994 33.9316 14.4455C34.0958 14.5912 34.2337 14.7312 34.3456 14.8654C34.4576 14.9959 34.5545 15.1224 34.6366 15.2451C34.6739 15.3065 34.6925 15.3909 34.6925 15.4982V20.601C34.6925 20.858 34.7373 21.0421 34.8268 21.1533C34.9163 21.2645 35.0842 21.3201 35.3303 21.3201L37.0479 21.3144C37.1374 21.3144 37.2046 21.3297 37.2493 21.3604C37.3463 21.4294 37.447 21.5119 37.5514 21.6078C37.6559 21.7036 37.7659 21.8187 37.8815 21.953C37.9188 22.0028 37.9375 22.0431 37.9375 22.0737C37.9375 22.1083 37.9188 22.1466 37.8815 22.1888C37.7659 22.3231 37.6559 22.4381 37.5514 22.534C37.447 22.6299 37.3463 22.7123 37.2493 22.7813C37.1971 22.8121 37.13 22.8274 37.0479 22.8274H34.2673ZM41.395 22.9712C40.7647 22.9712 40.2164 22.8676 39.7502 22.6606C39.2839 22.4496 38.9221 22.1236 38.6648 21.6826C38.4074 21.2415 38.2788 20.672 38.2788 19.974C38.2788 18.927 38.5399 18.135 39.062 17.5981C39.5842 17.0611 40.278 16.7926 41.1433 16.7926C41.7065 16.7926 42.1821 16.8962 42.57 17.1033C42.9616 17.3104 43.2581 17.5961 43.4595 17.9605C43.6646 18.3248 43.7672 18.7409 43.7672 19.2088C43.7672 19.6652 43.6535 19.9835 43.4259 20.1638C43.1984 20.3441 42.8664 20.4342 42.4301 20.4342H40.0299C40.0597 20.8292 40.1996 21.1303 40.4495 21.3374C40.7032 21.5445 41.0463 21.6481 41.479 21.6481C41.8221 21.6481 42.0963 21.5963 42.3014 21.4927C42.5103 21.3853 42.6557 21.3009 42.7378 21.2396C42.8087 21.1859 42.8888 21.161 42.9783 21.1648C43.0492 21.1648 43.1499 21.1801 43.2805 21.2108C43.4147 21.2377 43.5471 21.2895 43.6777 21.3661C43.771 21.416 43.8175 21.485 43.8175 21.5733C43.8175 21.6231 43.8082 21.6941 43.7896 21.7861C43.7784 21.8398 43.7597 21.9184 43.7337 22.022C43.7076 22.1217 43.674 22.2157 43.6329 22.3039C43.6105 22.346 43.5751 22.3863 43.5267 22.4247C43.452 22.4784 43.3308 22.5493 43.163 22.6375C42.9989 22.7258 42.7732 22.8024 42.486 22.8676C42.1988 22.9367 41.8352 22.9712 41.395 22.9712ZM40.0187 19.2549H41.8426C42.0329 19.2549 42.128 19.1648 42.128 18.9845C42.128 18.7122 42.044 18.484 41.8762 18.2999C41.7121 18.1119 41.4641 18.018 41.1321 18.018C40.7703 18.018 40.5036 18.1369 40.3321 18.3747C40.1642 18.6125 40.0597 18.9058 40.0187 19.2549ZM47.0234 22.9712C46.5273 22.9712 46.104 22.8466 45.7533 22.5972C45.4065 22.3441 45.1417 21.9971 44.9589 21.556C44.7799 21.1111 44.6904 20.5991 44.6904 20.02C44.6904 19.2568 44.8209 18.6393 45.082 18.1676C45.3468 17.692 45.7179 17.343 46.1953 17.1206C46.6765 16.8981 47.2434 16.7869 47.896 16.7869C48.1199 16.7869 48.3046 16.7984 48.4502 16.8214C48.5992 16.8444 48.7057 16.8655 48.7691 16.8847V14.7389C48.7691 14.6468 48.7878 14.5759 48.825 14.526C48.9816 14.3151 49.2108 14.0869 49.513 13.8414C49.565 13.8031 49.6118 13.7839 49.6529 13.7839C49.7016 13.7839 49.7479 13.8031 49.7927 13.8414C49.9532 13.968 50.0873 14.0869 50.1957 14.1981C50.3074 14.3093 50.4024 14.4186 50.4807 14.526C50.5184 14.5759 50.537 14.6468 50.537 14.7389V22.5627C50.537 22.6356 50.5127 22.6989 50.464 22.7526C50.4158 22.8024 50.3542 22.8274 50.2797 22.8274H49.4457C49.3865 22.8274 49.332 22.8197 49.2838 22.8044C49.2389 22.7852 49.196 22.7507 49.1549 22.7008L48.8083 22.2406H48.7691C48.7205 22.3173 48.6326 22.4151 48.5061 22.534C48.3829 22.649 48.202 22.7507 47.9633 22.8389C47.7283 22.9271 47.415 22.9712 47.0234 22.9712ZM47.5661 21.4985C47.9017 21.4985 48.1647 21.4333 48.3548 21.3029C48.5491 21.1725 48.687 21.0076 48.7691 20.8081V18.3977C48.7095 18.3593 48.6102 18.3133 48.4722 18.2596C48.3342 18.2059 48.1404 18.1791 47.8907 18.1791C47.428 18.1791 47.0812 18.3344 46.8499 18.6451C46.6187 18.9557 46.503 19.3737 46.503 19.8992C46.503 20.4438 46.6 20.8465 46.794 21.1073C46.9879 21.3681 47.2453 21.4985 47.5661 21.4985ZM57.5861 17.4887V22.1543C57.5861 23.2742 57.2749 24.1275 56.6518 24.7143C56.0326 25.3011 55.1823 25.5945 54.1005 25.5945C53.6531 25.5945 53.2989 25.56 53.0378 25.4909C52.7766 25.4258 52.579 25.3625 52.4448 25.3011C52.3589 25.2589 52.303 25.2148 52.2767 25.1688C52.2395 25.1074 52.1965 25.0173 52.1483 24.8984C52.1034 24.7795 52.0605 24.6491 52.0194 24.5072C52.0084 24.4535 52.0065 24.4133 52.0137 24.3864C52.029 24.3481 52.0567 24.3078 52.0977 24.2656C52.165 24.1966 52.26 24.116 52.3832 24.024C52.5097 23.9319 52.6071 23.8725 52.674 23.8456C52.7451 23.8188 52.81 23.8226 52.8697 23.8572C52.9671 23.9108 53.1051 23.9703 53.2841 24.0355C53.4665 24.1045 53.7224 24.139 54.0504 24.139C54.5727 24.139 54.9976 24.0009 55.326 23.7248C55.654 23.4487 55.8182 23.023 55.8182 22.4477V22.2406H55.7958C55.7137 22.348 55.6077 22.4573 55.4769 22.5685C55.3466 22.6797 55.1766 22.7737 54.968 22.8504C54.7627 22.9271 54.4982 22.9654 54.1735 22.9654C53.6102 22.9654 53.1476 22.8408 52.7862 22.5915C52.4281 22.3384 52.1631 21.9913 51.9917 21.5502C51.8237 21.1092 51.7397 20.6068 51.7397 20.043C51.7397 19.4255 51.8385 18.8713 52.0361 18.3804C52.2338 17.8895 52.5661 17.5021 53.032 17.2183C53.4985 16.9307 54.1363 16.7869 54.9455 16.7869C55.4306 16.7869 55.8369 16.8233 56.1653 16.8962C56.4971 16.9691 56.775 17.0592 56.9989 17.1666C57.2228 17.274 57.4186 17.3813 57.5861 17.4887ZM54.8839 18.1791C54.4514 18.1791 54.121 18.3286 53.8938 18.6278C53.666 18.927 53.5524 19.391 53.5524 20.02C53.5524 21.0057 53.9477 21.4985 54.7383 21.4985C55.0482 21.4985 55.285 21.4333 55.4492 21.3029C55.613 21.1725 55.7361 21.0076 55.8182 20.8081V18.4322C55.7361 18.3709 55.6206 18.3133 55.4716 18.2596C55.3222 18.2059 55.1265 18.1791 54.8839 18.1791ZM61.9053 22.9712C61.2752 22.9712 60.7266 22.8676 60.2606 22.6606C59.7942 22.4496 59.4323 22.1236 59.175 21.6826C58.9177 21.2415 58.7892 20.672 58.7892 19.974C58.7892 18.927 59.0504 18.135 59.5722 17.5981C60.0945 17.0611 60.7882 16.7926 61.6537 16.7926C62.2166 16.7926 62.6926 16.8962 63.0803 17.1033C63.4718 17.3104 63.7682 17.5961 63.9697 17.9605C64.175 18.3248 64.2776 18.7409 64.2776 19.2088C64.2776 19.6652 64.164 19.9835 63.9363 20.1638C63.709 20.3441 63.3768 20.4342 62.9404 20.4342H60.5404C60.57 20.8292 60.7099 21.1303 60.9601 21.3374C61.2136 21.5445 61.5568 21.6481 61.9894 21.6481C62.3326 21.6481 62.6067 21.5963 62.812 21.4927C63.0206 21.3853 63.1662 21.3009 63.2483 21.2396C63.319 21.1859 63.3992 21.161 63.4889 21.1648C63.5596 21.1648 63.6603 21.1801 63.7907 21.2108C63.9253 21.2377 64.0575 21.2895 64.1879 21.3661C64.2815 21.416 64.3278 21.485 64.3278 21.5733C64.3278 21.6231 64.3187 21.6941 64.3001 21.7861C64.2886 21.8398 64.27 21.9184 64.2442 22.022C64.218 22.1217 64.1845 22.2157 64.1435 22.3039C64.1211 22.346 64.0857 22.3863 64.037 22.4247C63.9625 22.4784 63.8413 22.5493 63.6732 22.6375C63.5095 22.7258 63.2837 22.8024 62.9963 22.8676C62.7093 22.9367 62.3455 22.9712 61.9053 22.9712ZM60.5289 19.2549H62.3532C62.5432 19.2549 62.6382 19.1648 62.6382 18.9845C62.6382 18.7122 62.5546 18.484 62.3866 18.2999C62.2223 18.1119 61.9746 18.018 61.6423 18.018C61.2809 18.018 61.014 18.1369 60.8426 18.3747C60.6746 18.6125 60.57 18.9058 60.5289 19.2549ZM67.2763 18.0295H67.2988C67.5785 17.2318 68.0822 16.8329 68.8093 16.8329C68.9024 16.8329 68.9793 16.8387 69.0389 16.8502C69.0986 16.8578 69.1392 16.8655 69.1616 16.8732C69.218 16.8924 69.2457 16.9365 69.2457 17.0055V18.3919C69.2457 18.5108 69.1788 18.5434 69.0442 18.4898C68.9998 18.4706 68.9344 18.4514 68.8485 18.4322C68.7663 18.4092 68.6508 18.3977 68.5019 18.3977C68.1175 18.3977 67.8172 18.5434 67.601 18.8349C67.3847 19.1225 67.2763 19.5157 67.2763 20.0142V22.5225C67.2763 22.6375 67.252 22.7181 67.2037 22.7641C67.1589 22.8063 67.0806 22.8274 66.9689 22.8274H65.8164C65.7042 22.8274 65.624 22.8063 65.5757 22.7641C65.5309 22.7181 65.5084 22.6375 65.5084 22.5225V17.7016C65.5084 17.6096 65.5271 17.5386 65.5643 17.4887C65.6426 17.3813 65.7362 17.2721 65.8441 17.1608C65.9563 17.0496 66.0923 16.9307 66.2527 16.8042C66.2823 16.7811 66.3124 16.7658 66.342 16.7581C66.3721 16.7505 66.3979 16.7466 66.4203 16.7466C66.4728 16.7466 66.5249 16.7658 66.5769 16.8042C66.8867 17.0534 67.103 17.2663 67.2262 17.4427C67.2596 17.4887 67.2763 17.5424 67.2763 17.6038V18.0295Z" fill="url(#paint1_linear_857_11880)"/>
</g>
<defs>
<filter id="filter0_i_857_11880" x="-1" y="-1" width="27.2578" height="28" filterUnits="userSpaceOnUse" color-interpolation-filters="sRGB">
<feFlood flood-opacity="0" result="BackgroundImageFix"/>
<feBlend mode="normal" in="SourceGraphic" in2="BackgroundImageFix" result="shape"/>
<feColorMatrix in="SourceAlpha" type="matrix" values="0 0 0 0 0 0 0 0 0 0 0 0 0 0 0 0 0 0 127 0" result="hardAlpha"/>
<feOffset dx="-1" dy="-1"/>
<feGaussianBlur stdDeviation="0.8"/>
<feComposite in2="hardAlpha" operator="arithmetic" k2="-1" k3="1"/>
<feColorMatrix type="matrix" values="0 0 0 0 1 0 0 0 0 1 0 0 0 0 1 0 0 0 0.16 0"/>
<feBlend mode="normal" in2="shape" result="effect1_innerShadow_857_11880"/>
</filter>
<filter id="filter1_i_857_11880" x="31.4922" y="3.63306" width="37.75" height="21.9614" filterUnits="userSpaceOnUse" color-interpolation-filters="sRGB">
<feFlood flood-opacity="0" result="BackgroundImageFix"/>
<feBlend mode="normal" in="SourceGraphic" in2="BackgroundImageFix" result="shape"/>
<feColorMatrix in="SourceAlpha" type="matrix" values="0 0 0 0 0 0 0 0 0 0 0 0 0 0 0 0 0 0 127 0" result="hardAlpha"/>
<feOffset dx="-1" dy="-1"/>
<feGaussianBlur stdDeviation="0.8"/>
<feComposite in2="hardAlpha" operator="arithmetic" k2="-1" k3="1"/>
<feColorMatrix type="matrix" values="0 0 0 0 1 0 0 0 0 1 0 0 0 0 1 0 0 0 0.16 0"/>
<feBlend mode="normal" in2="shape" result="effect1_innerShadow_857_11880"/>
</filter>
<linearGradient id="paint0_linear_857_11880" x1="-3.79487" y1="28.9286" x2="30.366" y2="7.0184" gradientUnits="userSpaceOnUse">
<stop offset="0.254808" stop-color="#383BFF"/>
<stop offset="0.451923" stop-color="#3538FF"/>
<stop offset="0.807692" stop-color="#4F4FDF"/>
</linearGradient>
<linearGradient id="paint1_linear_857_11880" x1="27.1805" y1="27.0917" x2="56.0549" y2="-6.29767" gradientUnits="userSpaceOnUse">
<stop offset="0.254808" stop-color="#383BFF"/>
<stop offset="0.451923" stop-color="#3538FF"/>
<stop offset="0.807692" stop-color="#4F4FDF"/>
</linearGradient>
</defs>
</svg>
